<svg height="511pt" viewBox="-33 0 511 511.99964" width="511pt" xmlns="http://www.w3.org/2000/svg"><path d="m44.710938 178.75 34.109374 6.15625 17.382813-125.304688c1.726563-12.472656-6.6875-24.082031-19.074219-26.316406l-2.367187-.429687c-1.988281-.359375-3.894531.964843-4.253907 2.953125zm0 0" fill="#e89c5d"/><path d="m51.457031 164.289062 35.292969 20.574219 70.828125-133.757812c6.351563-11.992188 2.105469-26.859375-9.617187-33.691407l-4.402344-2.566406c-2.058594-1.199218-4.699219-.503906-5.898438 1.554688zm0 0" fill="#f4b37d"/><path d="m402.921875 238.921875c-2.101563-2.855469-5.335937-4.648437-8.875-4.917969l-68.355469-5.164062c-6.039062-.445313-11.390625 3.484375-12.753906 9.375l-9.796875 42.3125c-2.851563-2.160156-6.144531-3.71875-9.734375-4.546875-6.691406-1.550781-13.59375-.402344-19.421875 3.238281-5.832031 3.636719-9.894531 9.328125-11.445313 16.023438-1.550781 6.699218-.402343 13.59375 3.238282 19.425781 3.636718 5.832031 9.328125 9.894531 16.023437 11.445312 1.945313.449219 3.90625.671875 5.851563.671875 4.761718 0 9.4375-1.328125 13.574218-3.910156 5.832032-3.636719 9.894532-9.328125 11.445313-16.023438l14.5-62.632812 62.160156 4.695312-8.679687 37.488282c-2.800782-2.128906-6.082032-3.71875-9.726563-4.566406-6.695312-1.546876-13.59375-.398438-19.425781 3.238281-5.832031 3.640625-9.894531 9.332031-11.445312 16.027343-1.550782 6.695313-.398438 13.59375 3.238281 19.425782 3.640625 5.828125 9.332031 9.894531 16.027343 11.441406 1.945313.453125 3.902344.675781 5.851563.675781 4.757813 0 9.433594-1.328125 13.570313-3.910156 5.832031-3.640625 9.894531-9.332031 11.445312-16.027344l14.78125-63.84375c.800781-3.457031.054688-7.078125-2.046875-9.941406zm0 0" fill="#e8626c"/><path d="m318.941406 15.046875-17.132812-11.863281c-5.476563-3.792969-12.542969-4.226563-18.4375-1.136719-5.898438 3.089844-9.5625 9.144531-9.5625 15.800781v33.230469c-4.035156-2.164063-8.644532-3.394531-13.535156-3.394531-15.859376 0-28.761719 12.902344-28.761719 28.761718 0 15.859376 12.902343 28.761719 28.761719 28.761719 15.859374 0 28.757812-12.902343 28.757812-28.761719v-58.597656c0-1.378906.882812-2.042968 1.402344-2.316406.527344-.277344 1.574218-.617188 2.707031.167969l17.136719 11.863281c3.457031 2.394531 8.199218 1.53125 10.589844-1.925781 2.394531-3.453125 1.53125-8.195313-1.925782-10.589844zm0 0" fill="#40c6c2"/><path d="m216.03125 214.871094c-13.503906 30.167968-21.113281 43.300781-30.328125 61.390625-2.945313 5.765625-8.191406 10.019531-14.449219 11.695312-28.214844 7.582031-45.378906 11.707031-71.046875 18.367188-1.953125.507812-3.261719 2.367187-3.042969 4.371093 4.265626 38.03125 17.101563 70.730469 43.320313 111.105469l-78.109375 40.082031c-41.566406-66.667968-56.28125-122.792968-54.226562-196.574218 3.191406-44.789063 21.746093-95.253906 28.996093-113.527344 1.773438-4.496094 5.351563-8.03125 9.859375-9.785156l105.546875-41.101563c9.140625-3.558593 19.515625.222657 24.222657 8.835938l31.109374 56.871093c2.203126 4.042969.324219 9.109376-3.980468 10.726563l-5.667969 2.132813c-11.148437 4.1875-23.707031 0-30.09375-10.050782l-12.433594-19.539062c-1.363281-2.152344-4.296875-2.636719-6.28125-1.023438-8.378906 6.777344-28.65625 23.390625-37.492187 32.214844-8.191406 8.203125-13.320313 43.554688.328125 57.105469 10.425781 10.355469 33.511719 14.839843 42.601562 5.742187 9.097657-9.085937 18.132813-45.976562 61.167969-29.039062zm0 0" fill="#ffc999"/><path d="m193.238281 210.5625c-12.128906 24.6875-19.546875 36.882812-28.414062 53.171875-3.101563 5.679687-8.460938 9.789063-14.765625 11.296875-28.410156 6.804688-45.679688 10.460938-71.523438 16.414062-1.964844.453126-3.324218 2.273438-3.15625 4.285157 3.21875 38.136719 15.15625 71.175781 40.261719 112.253906l-66.28125 31.746094c4.015625 7.277343 8.335937 14.644531 13.015625 22.152343l78.113281-40.078124c-26.222656-40.375-39.054687-73.078126-43.320312-111.109376-.222657-2.003906 1.085937-3.863281 3.039062-4.367187 25.671875-6.664063 42.835938-10.789063 71.050781-18.367187 6.257813-1.679688 11.503907-5.933594 14.449219-11.695313 9.214844-18.09375 16.824219-31.222656 30.324219-61.390625-8.972656-3.535156-16.464844-4.722656-22.792969-4.3125zm0 0" fill="#e89c5d"/><path d="m137.117188 222.054688 1.15625 2.175781c3.070312 5.777343 10.253906 7.960937 16.023437 4.867187l285.84375-153.347656c5.738281-3.078125 7.90625-10.214844 4.847656-15.960938-3.054687-5.75-10.183593-7.945312-15.941406-4.910156l-287 151.167969c-5.792969 3.050781-8.003906 10.226563-4.929687 16.007813zm0 0" fill="#4a4a68"/><path d="m169.261719 452.59375-89.421875 59.40625-4.808594-7.230469c-25.359375-38.175781-43.914062-71.867187-56.648438-104.425781l97.308594-45.839844c9.433594 26.59375 24.9375 54.988282 48.761719 90.859375zm0 0" fill="#4a4a68"/><path d="m95.976562 374.125c9.429688 26.589844 24.9375 54.988281 48.757813 90.859375l1.804687 2.707031 22.722657-15.097656-4.808594-7.230469c-23.824219-35.871093-39.328125-64.265625-48.761719-90.859375l-97.308594 45.839844c1.128907 2.878906 2.316407 5.773438 3.535157 8.671875zm0 0" fill="#333356"/><path d="m44.828125 461.796875c36.683594-17.59375 71.152344-37.746094 102.515625-61.503906 2.425781-1.835938 3.109375-5.203125 1.605469-7.851563-12.242188-21.570312-22.332031-43.847656-28.320313-62.632812-1.234375-3.867188-5.835937-5.453125-9.207031-3.195313-33.589844 22.507813-69.042969 39.367188-106.515625 50.113281-3.402344.976563-5.253906 4.648438-4.027344 7.972657 8.707032 23.585937 20.535156 48.089843 36.03125 74.636719 1.605469 2.75 5.046875 3.835937 7.917969 2.460937zm0 0" fill="#ededed"/><path d="m148.949219 392.441406c-12.242188-21.570312-22.332031-43.847656-28.320313-62.632812-1.234375-3.867188-5.835937-5.457032-9.207031-3.195313-5.34375 3.582031-10.742187 7.003907-16.179687 10.292969 7.714843 21.761719 19.21875 46.460938 32.847656 70.46875 1.144531 2.019531 1.28125 4.367188.535156 6.421875 6.351562-4.371094 12.597656-8.863281 18.71875-13.503906 2.425781-1.835938 3.109375-5.203125 1.605469-7.851563zm0 0" fill="#c9c9c9"/><path d="m109.015625 382.605469c-2.792969 0-5.480469-1.542969-6.816406-4.210938-1.878907-3.761719-.355469-8.332031 3.40625-10.210937l4.058593-2.03125c3.761719-1.878906 8.332032-.355469 10.210938 3.402344 1.882812 3.761718.355469 8.332031-3.402344 10.214843l-4.058594 2.027344c-1.09375.546875-2.257812.808594-3.398437.808594zm0 0" fill="#4a4a68"/></svg>