<svg id="Layer_1" enable-background="new 0 0 256 256" height="512" viewBox="0 0 256 256" width="512" xmlns="http://www.w3.org/2000/svg"><path d="m125.156 239.298c-.052-.161-.078-.33-.078-.499l.007-48.716h-18.784l3.088 48.666c.013.202-.012.404-.074.597l-2.327 7.298c-.285.894-.43 1.827-.43 2.766v.818c0 1.347 1.092 2.438 2.438 2.438h16.395c1.346 0 2.438-1.091 2.438-2.438v-1.21c0-.948-.148-1.891-.439-2.793z" fill="#f9cfcf"/><path d="m146.342 239.346c-.061-.193-.086-.395-.074-.597l3.088-48.666h-18.784l.007 48.716c0 .169-.026.338-.078.499l-2.233 6.927c-.291.903-.439 1.845-.439 2.793v1.21c0 1.347 1.092 2.438 2.438 2.438h16.395c1.346 0 2.438-1.091 2.438-2.438v-.818c0-.938-.145-1.872-.43-2.766z" fill="#f9cfcf"/><path d="m85.472 166.359 5.301 4.448-33.899 40.399-9.204-6.22c-.507-.343-.578-1.062-.148-1.497l36.627-37.069c.357-.361.933-.388 1.323-.061z" fill="#e0ebfc"/><path d="m96.073 175.255-5.301-4.448-33.899 40.399 7.723 7.984c.426.44 1.146.385 1.5-.114l30.145-42.507c.296-.415.222-.987-.168-1.314z" fill="#e0ebfc"/><path d="m92.045 171.875-2.545-2.135 9.536-11.365c.59-.703 1.637-.794 2.34-.205.703.59.794 1.637.205 2.34z" fill="#a4c9ff"/><path d="m65.297 221.488c-.804 0-1.573-.324-2.138-.907l-7.579-7.834-9.031-6.103c-.737-.498-1.208-1.291-1.296-2.174s.22-1.753.845-2.385l36.626-37.069c1.083-1.094 2.854-1.178 4.033-.188l10.601 8.895c1.178.989 1.404 2.747.515 4.002l-30.146 42.507c-.513.725-1.316 1.179-2.202 1.247-.075.007-.152.009-.228.009zm-15.487-17.468 8.184 5.53c.115.078.222.167.318.267l6.867 7.099 28.888-40.733-9.157-7.684z" fill="#3762cc"/><path d="m94.669 173.768 6.684 1.791-13.649 50.94-10.97-1.747c-.604-.096-.973-.718-.767-1.294l17.529-49.075c.17-.479.681-.747 1.173-.615z" fill="#b9befc"/><path d="m108.036 177.349-6.684-1.791-13.649 50.94 10.374 3.972c.572.219 1.201-.135 1.311-.737l9.357-51.264c.091-.501-.217-.988-.709-1.12z" fill="#b9befc"/><path d="m102.957 175.989-3.209-.86 3.84-14.33c.237-.886 1.148-1.412 2.034-1.175.886.237 1.412 1.148 1.175 2.034z" fill="#a4c9ff"/><path d="m98.428 232.537c-.359 0-.72-.065-1.066-.197l-10.179-3.898-10.764-1.714c-.877-.14-1.64-.658-2.093-1.422s-.542-1.683-.243-2.519l17.53-49.076c.516-1.448 2.084-2.272 3.573-1.875l13.369 3.583c1.486.398 2.434 1.896 2.158 3.41l-9.357 51.265c-.158.873-.693 1.624-1.468 2.06-.453.254-.955.383-1.46.383zm-20.164-9.566 9.754 1.553c.137.022.271.058.401.107l9.223 3.532 8.966-49.125-11.546-3.094zm29.253-43.69c.001 0 .001 0 0 0z" fill="#3762cc"/><path d="m170.528 166.359-5.301 4.448 33.899 40.399 9.204-6.22c.507-.343.578-1.062.148-1.497l-36.627-37.069c-.357-.361-.933-.388-1.323-.061z" fill="#6bdddd"/><path d="m159.927 175.255 5.301-4.448 33.899 40.399-7.723 7.984c-.426.44-1.146.385-1.5-.114l-30.145-42.507c-.296-.415-.222-.987.168-1.314z" fill="#6bdddd"/><path d="m163.955 171.875 2.545-2.135-9.536-11.365c-.59-.703-1.637-.794-2.34-.205-.703.59-.794 1.637-.205 2.34z" fill="#a4c9ff"/><path d="m170.528 166.359-5.301 4.448 33.899 40.399 9.204-6.22c.507-.343.578-1.062.148-1.497l-36.627-37.069c-.357-.361-.933-.388-1.323-.061z" fill="#6bdddd"/><path d="m159.927 175.255 5.301-4.448 33.899 40.399-7.723 7.984c-.426.44-1.146.385-1.5-.114l-30.145-42.507c-.296-.415-.222-.987.168-1.314z" fill="#6bdddd"/><path d="m190.703 221.488c-.076 0-.152-.002-.229-.008-.886-.068-1.688-.522-2.202-1.248l-30.145-42.506c-.89-1.256-.664-3.014.514-4.003l10.602-8.896c1.18-.991 2.95-.907 4.032.188l36.626 37.068c.625.632.932 1.501.845 2.385-.083.84-.514 1.598-1.188 2.098l-16.811 14.106c-.555.527-1.284.816-2.044.816zm-28.768-45.307 28.956 40.829 15.382-12.907-35.181-35.605zm45.119 28.713s.001.001.001.001z" fill="#3762cc"/><path d="m161.331 173.768-6.684 1.791 13.649 50.94 10.97-1.747c.604-.096.973-.718.767-1.294l-17.529-49.075c-.17-.479-.681-.747-1.173-.615z" fill="#ffea92"/><path d="m147.964 177.349 6.684-1.791 13.649 50.94-10.374 3.972c-.572.219-1.201-.135-1.311-.737l-9.357-51.264c-.091-.501.217-.988.709-1.12z" fill="#ffea92"/><path d="m153.043 175.989 3.209-.86-3.84-14.33c-.237-.886-1.148-1.412-2.034-1.175-.886.237-1.412 1.148-1.174 2.034z" fill="#a4c9ff"/><path d="m157.572 232.537c-.505 0-1.007-.129-1.459-.384-.774-.436-1.31-1.188-1.468-2.062l-9.356-51.263c-.276-1.514.672-3.012 2.158-3.41l13.368-3.582c1.489-.4 3.059.427 3.575 1.876l17.529 49.073v.001c.298.836.21 1.755-.243 2.519s-1.216 1.282-2.093 1.422l-10.764 1.714-10.179 3.897c-.347.133-.708.199-1.068.199zm-8.18-53.499 8.966 49.125 9.223-3.532c.129-.05.264-.085.401-.107l9.754-1.553-16.798-47.027z" fill="#3762cc"/><path d="m97.573 136.291c-.282-.375-.189-.91.203-1.168l3.906-2.57-9.832-14.491-7.949 5.541c-3.254 2.268-3.975 6.784-1.589 9.953l15.135 20.101c.341.452.421 1.05.213 1.576l-1.296 3.273c-.624 1.576-.506 3.349.32 4.828l.914 1.636c.431.771 1.245 1.249 2.128 1.249h8.114l-.206-16.566z" fill="#f9cfcf"/><path d="m107.84 168.219h-8.114c-1.606 0-3.09-.871-3.874-2.272l-.915-1.637c-1.125-2.013-1.283-4.396-.434-6.54l1.219-3.078-15.008-19.933c-1.483-1.971-2.086-4.397-1.698-6.833.389-2.436 1.718-4.554 3.741-5.964l7.949-5.541c.439-.306.982-.422 1.507-.326.526.098.991.401 1.291.844l9.832 14.491c.301.443.411.988.307 1.513s-.415.986-.862 1.281l-2.849 1.875 9.3 12.352c.256.34.397.753.402 1.178l.206 16.565c.006.535-.201 1.05-.577 1.43-.375.38-.888.595-1.423.595zm-16.508-47.358-6.287 4.382c-1.124.784-1.862 1.96-2.078 3.314-.216 1.353.119 2.701.943 3.795l15.135 20.101c.754 1.002.936 2.349.475 3.515l-1.297 3.273c-.404 1.021-.329 2.157.207 3.116l.914 1.636c.078.138.224.224.383.224h6.089l-.173-13.886-9.667-12.839c-.465-.618-.657-1.41-.524-2.172s.579-1.444 1.226-1.869l2.21-1.455z" fill="#3762cc"/><path d="m173.737 133.556c2.386-3.169 1.665-7.685-1.589-9.953l-8.231-5.738c-.008.014-.009.03-.018.043l-9.811 14.46 4.186 2.754c.392.258.485.793.202 1.168l-10.061 13.363-.206 16.566h8.115c.883 0 1.697-.478 2.128-1.248l.914-1.636c.827-1.48.945-3.253.32-4.828l-1.296-3.273c-.209-.527-.128-1.124.213-1.576z" fill="#f9cfcf"/><path d="m156.323 168.219h-8.114c-.535 0-1.047-.214-1.423-.595-.376-.38-.583-.896-.577-1.43l.206-16.565c.005-.425.146-.838.402-1.178l9.3-12.352-3.129-2.059c-.447-.294-.758-.756-.862-1.281s.006-1.07.307-1.513l9.731-14.342c.014-.026.029-.052.044-.077.287-.472.756-.805 1.296-.919.542-.114 1.104 0 1.557.316l8.231 5.737c2.023 1.411 3.352 3.529 3.741 5.964.389 2.436-.214 4.862-1.698 6.833l-15.008 19.933 1.219 3.078c.849 2.144.691 4.528-.435 6.541l-.914 1.636c-.784 1.402-2.268 2.273-3.874 2.273zm-6.09-4h6.089c.159 0 .305-.086.383-.225l.914-1.635c.536-.959.612-2.095.208-3.117l-1.296-3.273c-.462-1.167-.28-2.514.474-3.515l15.135-20.102c.824-1.095 1.159-2.442.943-3.795-.216-1.354-.954-2.53-2.079-3.314l-6.562-4.574-7.561 11.144 2.491 1.639c.646.425 1.093 1.106 1.226 1.869s-.059 1.555-.525 2.173l-9.667 12.839zm23.504-30.663h.01z" fill="#3762cc"/><path d="m159.664 86.822-6.206-33.534h-25.62-25.62l-6.206 33.534c-.095.516-.143 1.039-.143 1.564 0 4.745 3.847 8.593 8.593 8.593h23.377 23.377c4.746 0 8.593-3.847 8.593-8.593-.001-.525-.049-1.049-.145-1.564z" fill="#4671c6"/><path d="m151.215 98.978h-46.755c-5.841 0-10.593-4.752-10.593-10.593 0-.646.06-1.295.177-1.929l6.206-33.533c.176-.948 1.002-1.636 1.967-1.636h51.241c.964 0 1.791.688 1.967 1.636l6.206 33.534v-.001c.118.634.177 1.283.177 1.929 0 5.841-4.752 10.593-10.593 10.593zm-47.334-43.69-5.903 31.897c-.073.395-.11.798-.11 1.2 0 3.635 2.958 6.593 6.593 6.593h46.755c3.635 0 6.592-2.958 6.592-6.593 0-.402-.037-.806-.11-1.199 0 0 0 0 0-.001l-5.903-31.897z" fill="#3762cc"/><path d="m140.186 102.735h-3.075c-.007 0-.014-.002-.021-.002l-.001.002h-21.599c-5.906 0-10.695 4.788-10.695 10.695v7.268.47 1.234 3.156 10.224 3.82 5.623h46.086v-5.623-3.82-10.224-3.156-1.704-7.268c0-5.907-4.789-10.695-10.695-10.695z" fill="#a4c9ff"/><path d="m149.102 71.758c-.045 0-.089.006-.134.007v-1.979c0-11.565-9.461-20.941-21.131-20.941-11.67 0-21.131 9.376-21.131 20.941v1.979c-.045-.001-.088-.007-.134-.007-3.56 0-6.447 2.86-6.447 6.389 0 3.528 2.886 6.389 6.447 6.389.234 0 .464-.014.692-.038 2.181 9.264 10.561 16.167 20.573 16.167 10.013 0 18.393-6.903 20.573-16.167.227.024.458.038.692.038 3.56 0 6.447-2.86 6.447-6.389s-2.886-6.389-6.447-6.389z" fill="#f9cfcf"/><path d="m127.838 100.665c-3.453 0-6.711-.822-9.589-2.277v3.878c0 4.495 3.644 8.139 8.139 8.139h2.894c4.495 0 8.139-3.644 8.139-8.139v-3.876c-2.876 1.454-6.133 2.275-9.583 2.275z" fill="#f9cfcf"/><path d="m117.337 82.08c-1.407 0-2.551-1.144-2.551-2.551v-4.251c0-1.407 1.144-2.551 2.551-2.551 1.406 0 2.551 1.144 2.551 2.551v4.251c0 1.407-1.145 2.551-2.551 2.551z" fill="#3762cc"/><path d="m138.239 82.08c-1.407 0-2.551-1.144-2.551-2.551v-4.251c0-1.407 1.144-2.551 2.551-2.551 1.406 0 2.551 1.144 2.551 2.551v4.251c-.001 1.407-1.145 2.551-2.551 2.551z" fill="#3762cc"/><path d="m133.219 89.337c0 .82-.35 1.617-.997 2.269-.775.781-1.913 1.286-3.158 1.429v.046h-.718-1.015-.718v-.046c-1.246-.143-2.384-.648-3.158-1.429-.647-.652-.997-1.449-.997-2.269v-1.132c0-.449.364-.813.813-.813h9.137c.449 0 .813.364.813.813v1.132z" fill="#f9a7a7"/><path d="m130.47 239.395v5.622h7.822.228 7.822v-5.671l2.327 7.298c.285.894.43 1.827.43 2.766v.819c0 1.346-1.092 2.438-2.438 2.438h-16.395c-1.346 0-2.438-1.092-2.438-2.438v-1.21c0-.948.148-1.891.439-2.794z" fill="#f9a7a7"/><path d="m125.188 239.395v5.622h-7.822-.228-7.822v-5.671l-2.327 7.298c-.285.894-.43 1.827-.43 2.766v.819c0 1.346 1.092 2.438 2.438 2.438h16.395c1.346 0 2.438-1.092 2.438-2.438v-1.21c0-.948-.148-1.891-.439-2.794z" fill="#f9a7a7"/><path d="m130.58 33.713c-1.657 0-3-1.343-3-3v-24.38c0-1.657 1.343-3 3-3s3 1.343 3 3v24.379c0 1.658-1.343 3.001-3 3.001z" fill="#ffea92"/><path d="m94.873 44.259c-.768 0-1.536-.293-2.121-.878l-17.239-17.239c-1.172-1.172-1.172-3.071 0-4.243s3.072-1.171 4.243 0l17.239 17.239c1.172 1.172 1.172 3.071 0 4.243-.586.585-1.354.878-2.122.878z" fill="#ffea92"/><path d="m166.288 44.259c-.768 0-1.536-.293-2.121-.879-1.172-1.171-1.172-3.071 0-4.242l17.239-17.239c1.171-1.172 3.071-1.172 4.242 0 1.172 1.171 1.172 3.071 0 4.242l-17.239 17.239c-.586.586-1.354.879-2.121.879z" fill="#ffea92"/><path d="m195.223 68.145h-24.379c-1.657 0-3-1.343-3-3s1.343-3 3-3h24.379c1.657 0 3 1.343 3 3s-1.343 3-3 3z" fill="#ffea92"/><path d="m88.248 68.145h-24.379c-1.657 0-3-1.343-3-3s1.343-3 3-3h24.379c1.657 0 3 1.343 3 3s-1.343 3-3 3z" fill="#ffea92"/><path d="m107.103 145.225h41.453v7.918h-41.453z" fill="#e0ebfc"/><path d="m127.838 102.665c-10.265 0-19.136-6.573-22.102-16.17-4.267-.418-7.61-4.002-7.61-8.348 0-3.989 2.818-7.336 6.581-8.182v-.179c0-12.65 10.376-22.941 23.131-22.941 12.754 0 23.131 10.291 23.131 22.941v.179c3.763.846 6.581 4.193 6.581 8.182 0 4.345-3.344 7.929-7.61 8.348-2.966 9.596-11.837 16.17-22.102 16.17zm-20.572-20.168c.918 0 1.731.63 1.945 1.542 2.027 8.611 9.687 14.625 18.626 14.625s16.599-6.014 18.626-14.625c.23-.982 1.154-1.635 2.16-1.531.157.017.317.027.479.027 2.452 0 4.447-1.969 4.447-4.389 0-2.409-1.976-4.371-4.413-4.389-.074.005-.134.007-.168.006-.522 0-1.024-.205-1.399-.57-.384-.376-.601-.892-.601-1.43v-1.979c0-10.444-8.582-18.941-19.131-18.941s-19.131 8.497-19.131 18.941v1.979c0 .538-.217 1.053-.601 1.43-.385.375-.918.578-1.442.57-.03 0-.12-.005-.149-.007-2.393.001-4.388 1.97-4.388 4.39s1.995 4.389 4.447 4.389c.162 0 .321-.01.479-.027.072-.007.143-.011.214-.011z" fill="#3762cc"/><path d="m153.091 69.3h-9.059c-6.787 0-12.29-5.502-12.29-12.29v-12.683c0-2.715 2.201-4.916 4.916-4.916 10.433 0 18.89 8.458 18.89 18.89v8.54c.001 1.358-1.099 2.459-2.457 2.459z" fill="#4671c6"/><path d="m102.584 69.3h16.869c6.787 0 12.29-5.502 12.29-12.29v-12.683c0-2.715-2.201-4.916-4.916-4.916h-7.811c-10.433 0-18.89 8.458-18.89 18.89v8.54c0 1.358 1.101 2.459 2.458 2.459z" fill="#4671c6"/><path d="m153.091 71.3h-9.059c-7.879 0-14.29-6.41-14.29-14.29v-12.683c0-3.813 3.102-6.916 6.916-6.916 11.519 0 20.891 9.371 20.891 20.89v8.54c0 2.459-2 4.459-4.458 4.459zm-16.432-29.888c-1.607 0-2.916 1.308-2.916 2.916v12.682c0 5.674 4.616 10.29 10.29 10.29h9.059c.252 0 .458-.206.458-.458v-8.54c-.001-9.314-7.578-16.89-16.891-16.89z" fill="#3762cc"/><path d="m119.454 71.3h-16.87c-2.458 0-4.458-2-4.458-4.458v-8.54c0-11.519 9.372-20.89 20.891-20.89h7.811c3.813 0 6.916 3.102 6.916 6.916v12.682c-.001 7.88-6.411 14.29-14.29 14.29zm-.437-29.888c-9.313 0-16.891 7.577-16.891 16.89v8.54c0 .252.206.458.458.458h16.87c5.674 0 10.29-4.616 10.29-10.29v-12.683c0-1.607-1.308-2.916-2.916-2.916h-7.811z" fill="#3762cc"/><path d="m163.633 116.519-16.43-11.148c2.25 1.96 3.678 4.84 3.678 8.058v7.268 1.704 3.156 7.254l1.162.789c.457.31 1.079.191 1.389-.266l10.467-15.426c.31-.457.191-1.079-.266-1.389z" fill="#a4c9ff"/><path d="m104.795 125.558v-3.156-1.234-.47-7.268c0-3.263 1.466-6.18 3.77-8.142l-16.553 11.231c-.457.31-.576.932-.266 1.389l10.467 15.426c.31.457.932.576 1.389.266l1.194-.81v-7.232z" fill="#a4c9ff"/><path d="m150.881 134.812c-1.104 0-2-.896-2-2v-7.937c0-1.104.896-2 2-2s2 .896 2 2v7.937c0 1.104-.896 2-2 2z" fill="#3762cc"/><path d="m104.795 134.812c-1.104 0-2-.896-2-2v-7.937c0-1.104.896-2 2-2s2 .896 2 2v7.937c0 1.104-.896 2-2 2z" fill="#3762cc"/><path d="m150.881 147.226h-46.086c-1.104 0-2-.896-2-2v-9.462c-.106-.009-.213-.023-.32-.044-.787-.15-1.468-.599-1.918-1.262l-10.466-15.426c-.929-1.369-.571-3.239.798-4.167l16.466-11.172c2.282-1.908 5.166-2.957 8.134-2.957h.76v-2.348c0-.695.361-1.34.953-1.704.592-.365 1.332-.396 1.95-.081 2.704 1.368 5.626 2.062 8.686 2.062 3.058 0 5.978-.693 8.681-2.059.619-.315 1.358-.284 1.95.081.592.364.952 1.009.952 1.704v2.345h.765c3.015 0 5.935 1.081 8.235 3.047l16.334 11.082c.663.45 1.111 1.132 1.262 1.919.15.788-.015 1.586-.465 2.25l-10.466 15.425c-.45.663-1.131 1.111-1.918 1.262-.096.019-.192.032-.288.042v9.465c.001 1.102-.895 1.998-1.999 1.998zm-44.086-4h42.086v-10.414c0-.741.409-1.42 1.064-1.768.654-.346 1.446-.303 2.06.113l.334.227 9.343-13.771-15.603-10.585c-.066-.045-.13-.095-.191-.147-1.586-1.383-3.612-2.145-5.703-2.145h-2.789c-.55 0-1.076-.227-1.454-.626-.377-.4-.574-.938-.543-1.486l.01-.155c.004-.067.01-.134.01-.202v-.86c-4.847 1.675-10.327 1.674-15.172-.002v.862c0 .068.006.135.01.202l.01.155c.031.549-.166 1.086-.543 1.486-.378.399-.904.626-1.454.626h-2.783c-2.057 0-4.056.737-5.628 2.076-.055.047-.113.091-.173.132l-15.726 10.67 9.344 13.771.366-.248c.612-.416 1.405-.459 2.06-.112s1.063 1.026 1.063 1.767v10.434zm55.713-25.053s.001.001.001.001z" fill="#3762cc"/><path d="m148.549 155.144h-41.453c-1.104 0-2-.896-2-2v-7.918c0-1.104.896-2 2-2h41.453c1.104 0 2 .896 2 2v7.918c0 1.105-.896 2-2 2zm-39.453-4h37.453v-3.918h-37.453z" fill="#3762cc"/><path d="m148.556 153.144h-20.727-.007-20.727l-11.465 34.305c-.433 1.295.531 2.634 1.897 2.634h30.295.007 30.295c1.366 0 2.33-1.339 1.897-2.634z" fill="#f9a7a7"/><g fill="#3762cc"><path d="m158.124 192.083h-60.597c-1.283 0-2.497-.622-3.246-1.663s-.955-2.389-.548-3.605l11.465-34.305c.273-.816 1.037-1.366 1.897-1.366h41.46c.86 0 1.624.55 1.897 1.366l11.465 34.305c.406 1.217.201 2.565-.548 3.605-.749 1.042-1.962 1.663-3.245 1.663zm-49.588-36.939-11.009 32.939h60.597l-11.009-32.939z"/><path d="m146.662 254.667h-16.395c-2.447 0-4.438-1.991-4.438-4.438v-1.21c0-1.126.173-2.246.514-3.33.162-.515.525-.942 1.007-1.186l.397-.2c2.365-1.859 5.312-2.881 8.323-2.881h4.445c3.011 0 5.958 1.021 8.323 2.881l.662.334c.48.243.843.668 1.005 1.181l.07.222c.347 1.088.524 2.224.524 3.37v.818c.001 2.448-1.99 4.439-4.437 4.439zm-16.697-7.023c-.09.454-.136.914-.136 1.375v1.21c0 .242.196.438.438.438h16.395c.242 0 .438-.196.438-.438v-.818c0-.539-.061-1.073-.181-1.595l-.068-.034c-.128-.065-.25-.144-.361-.234-1.683-1.37-3.805-2.124-5.975-2.124h-4.445c-2.17 0-4.292.754-5.974 2.124-.043.033-.086.065-.131.096zm-1.132-1.649h.01z"/><path d="m125.391 254.667h-16.395c-2.447 0-4.438-1.991-4.438-4.438v-.818c0-1.146.177-2.282.525-3.374l.071-.222c.163-.511.525-.935 1.004-1.177l.662-.334c2.365-1.859 5.312-2.881 8.323-2.881h4.445c3.012 0 5.958 1.021 8.323 2.881l.397.2c.482.243.845.671 1.007 1.186.341 1.083.514 2.204.514 3.33v1.21c0 2.446-1.991 4.437-4.438 4.437zm-16.651-6.852c-.12.522-.181 1.057-.181 1.595v.818c0 .242.196.438.438.438h16.395c.242 0 .438-.196.438-.438v-1.21c0-.461-.045-.921-.136-1.375-.045-.031-.088-.063-.131-.098-1.683-1.37-3.804-2.124-5.974-2.124h-4.445c-2.169 0-4.292.754-5.975 2.124-.111.091-.232.169-.361.234z"/><path d="m125.391 254.667h-16.395c-2.447 0-4.438-1.991-4.438-4.438v-.818c0-1.146.177-2.282.525-3.374l2.306-7.231-3.084-48.596c-.035-.551.16-1.092.538-1.495s.906-.631 1.458-.631h18.784c.53 0 1.039.211 1.415.586.375.375.585.884.585 1.415l-.007 48.658 2.215 6.87c.355 1.103.536 2.249.536 3.407v1.21c0 2.446-1.991 4.437-4.438 4.437zm-16.959-62.584 2.954 46.54c.028.453-.027.9-.165 1.332l-2.327 7.298c-.223.699-.335 1.424-.335 2.158v.818c0 .242.196.438.438.438h16.395c.242 0 .438-.196.438-.438v-1.21c0-.741-.115-1.475-.342-2.18l-2.234-6.927s0-.001-.001-.002c-.115-.359-.174-.733-.174-1.111l.006-46.716z"/><path d="m146.662 254.667h-16.395c-2.447 0-4.438-1.991-4.438-4.438v-1.21c0-1.158.18-2.304.536-3.407l2.215-6.87-.007-48.658c0-.531.21-1.04.585-1.415s.884-.586 1.415-.586h18.784c.552 0 1.08.229 1.458.631.378.403.572.944.538 1.495l-3.084 48.596 2.306 7.232c.348 1.091.525 2.227.525 3.373v.818c0 2.448-1.991 4.439-4.438 4.439zm-14.088-62.584.006 46.715c0 .378-.059.752-.174 1.111l-2.234 6.929c-.228.706-.343 1.439-.343 2.18v1.21c0 .242.196.438.438.438h16.395c.242 0 .438-.196.438-.438v-.818c0-.734-.113-1.459-.335-2.158l-2.327-7.299c-.138-.431-.193-.878-.165-1.331l2.954-46.541h-14.653zm15.674 46.655.001.002c-.001 0-.001-.001-.001-.002z"/></g></svg>